<?xml version="1.0" encoding="utf-8" ?>
<svg baseProfile="tiny" height="210mm" version="1.2" width="297mm" xmlns="http://www.w3.org/2000/svg" xmlns:ev="http://www.w3.org/2001/xml-events" xmlns:xlink="http://www.w3.org/1999/xlink"><defs /><rect fill="#7cbdc5" height="150mm" stroke="none" width="150mm" x="15mm" y="15mm" /><rect fill="black" height="15.0mm" stroke="none" width="15.0mm" x="30.0mm" y="30.0mm" /><rect fill="black" height="15.0mm" stroke="none" width="15.0mm" x="45.0mm" y="30.0mm" /><rect fill="black" height="15.0mm" stroke="none" width="15.0mm" x="60.0mm" y="30.0mm" /><rect fill="black" height="15.0mm" stroke="none" width="15.0mm" x="75.0mm" y="30.0mm" /><rect fill="black" height="15.0mm" stroke="none" width="15.0mm" x="90.0mm" y="30.0mm" /><rect fill="black" height="15.0mm" stroke="none" width="15.0mm" x="105.0mm" y="30.0mm" /><rect fill="black" height="15.0mm" stroke="none" width="15.0mm" x="120.0mm" y="30.0mm" /><rect fill="black" height="15.0mm" stroke="none" width="15.0mm" x="135.0mm" y="30.0mm" /><rect fill="black" height="15.0mm" stroke="none" width="15.0mm" x="30.0mm" y="45.0mm" /><rect fill="#7cbdc5" height="15.0mm" stroke="none" width="15.0mm" x="45.0mm" y="45.0mm" /><rect fill="#7cbdc5" height="15.0mm" stroke="none" width="15.0mm" x="60.0mm" y="45.0mm" /><rect fill="#7cbdc5" height="15.0mm" stroke="none" width="15.0mm" x="75.0mm" y="45.0mm" /><rect fill="black" height="15.0mm" stroke="none" width="15.0mm" x="90.0mm" y="45.0mm" /><rect fill="#7cbdc5" height="15.0mm" stroke="none" width="15.0mm" x="105.0mm" y="45.0mm" /><rect fill="black" height="15.0mm" stroke="none" width="15.0mm" x="120.0mm" y="45.0mm" /><rect fill="black" height="15.0mm" stroke="none" width="15.0mm" x="135.0mm" y="45.0mm" /><rect fill="black" height="15.0mm" stroke="none" width="15.0mm" x="30.0mm" y="60.0mm" /><rect fill="#7cbdc5" height="15.0mm" stroke="none" width="15.0mm" x="45.0mm" y="60.0mm" /><rect fill="#7cbdc5" height="15.0mm" stroke="none" width="15.0mm" x="60.0mm" y="60.0mm" /><rect fill="#7cbdc5" height="15.0mm" stroke="none" width="15.0mm" x="75.0mm" y="60.0mm" /><rect fill="#7cbdc5" height="15.0mm" stroke="none" width="15.0mm" x="90.0mm" y="60.0mm" /><rect fill="black" height="15.0mm" stroke="none" width="15.0mm" x="105.0mm" y="60.0mm" /><rect fill="black" height="15.0mm" stroke="none" width="15.0mm" x="120.0mm" y="60.0mm" /><rect fill="black" height="15.0mm" stroke="none" width="15.0mm" x="135.0mm" y="60.0mm" /><rect fill="black" height="15.0mm" stroke="none" width="15.0mm" x="30.0mm" y="75.0mm" /><rect fill="#7cbdc5" height="15.0mm" stroke="none" width="15.0mm" x="45.0mm" y="75.0mm" /><rect fill="black" height="15.0mm" stroke="none" width="15.0mm" x="60.0mm" y="75.0mm" /><rect fill="#7cbdc5" height="15.0mm" stroke="none" width="15.0mm" x="75.0mm" y="75.0mm" /><rect fill="#7cbdc5" height="15.0mm" stroke="none" width="15.0mm" x="90.0mm" y="75.0mm" /><rect fill="#7cbdc5" height="15.0mm" stroke="none" width="15.0mm" x="105.0mm" y="75.0mm" /><rect fill="#7cbdc5" height="15.0mm" stroke="none" width="15.0mm" x="120.0mm" y="75.0mm" /><rect fill="black" height="15.0mm" stroke="none" width="15.0mm" x="135.0mm" y="75.0mm" /><rect fill="black" height="15.0mm" stroke="none" width="15.0mm" x="30.0mm" y="90.0mm" /><rect fill="black" height="15.0mm" stroke="none" width="15.0mm" x="45.0mm" y="90.0mm" /><rect fill="black" height="15.0mm" stroke="none" width="15.0mm" x="60.0mm" y="90.0mm" /><rect fill="#7cbdc5" height="15.0mm" stroke="none" width="15.0mm" x="75.0mm" y="90.0mm" /><rect fill="black" height="15.0mm" stroke="none" width="15.0mm" x="90.0mm" y="90.0mm" /><rect fill="#7cbdc5" height="15.0mm" stroke="none" width="15.0mm" x="105.0mm" y="90.0mm" /><rect fill="black" height="15.0mm" stroke="none" width="15.0mm" x="120.0mm" y="90.0mm" /><rect fill="black" height="15.0mm" stroke="none" width="15.0mm" x="135.0mm" y="90.0mm" /><rect fill="black" height="15.0mm" stroke="none" width="15.0mm" x="30.0mm" y="105.0mm" /><rect fill="#7cbdc5" height="15.0mm" stroke="none" width="15.0mm" x="45.0mm" y="105.0mm" /><rect fill="black" height="15.0mm" stroke="none" width="15.0mm" x="60.0mm" y="105.0mm" /><rect fill="black" height="15.0mm" stroke="none" width="15.0mm" x="75.0mm" y="105.0mm" /><rect fill="black" height="15.0mm" stroke="none" width="15.0mm" x="90.0mm" y="105.0mm" /><rect fill="black" height="15.0mm" stroke="none" width="15.0mm" x="105.0mm" y="105.0mm" /><rect fill="black" height="15.0mm" stroke="none" width="15.0mm" x="120.0mm" y="105.0mm" /><rect fill="black" height="15.0mm" stroke="none" width="15.0mm" x="135.0mm" y="105.0mm" /><rect fill="black" height="15.0mm" stroke="none" width="15.0mm" x="30.0mm" y="120.0mm" /><rect fill="#7cbdc5" height="15.0mm" stroke="none" width="15.0mm" x="45.0mm" y="120.0mm" /><rect fill="black" height="15.0mm" stroke="none" width="15.0mm" x="60.0mm" y="120.0mm" /><rect fill="black" height="15.0mm" stroke="none" width="15.0mm" x="75.0mm" y="120.0mm" /><rect fill="black" height="15.0mm" stroke="none" width="15.0mm" x="90.0mm" y="120.0mm" /><rect fill="#7cbdc5" height="15.0mm" stroke="none" width="15.0mm" x="105.0mm" y="120.0mm" /><rect fill="black" height="15.0mm" stroke="none" width="15.0mm" x="120.0mm" y="120.0mm" /><rect fill="black" height="15.0mm" stroke="none" width="15.0mm" x="135.0mm" y="120.0mm" /><rect fill="black" height="15.0mm" stroke="none" width="15.0mm" x="30.0mm" y="135.0mm" /><rect fill="black" height="15.0mm" stroke="none" width="15.0mm" x="45.0mm" y="135.0mm" /><rect fill="black" height="15.0mm" stroke="none" width="15.0mm" x="60.0mm" y="135.0mm" /><rect fill="black" height="15.0mm" stroke="none" width="15.0mm" x="75.0mm" y="135.0mm" /><rect fill="black" height="15.0mm" stroke="none" width="15.0mm" x="90.0mm" y="135.0mm" /><rect fill="black" height="15.0mm" stroke="none" width="15.0mm" x="105.0mm" y="135.0mm" /><rect fill="black" height="15.0mm" stroke="none" width="15.0mm" x="120.0mm" y="135.0mm" /><rect fill="black" height="15.0mm" stroke="none" width="15.0mm" x="135.0mm" y="135.0mm" /></svg>